<?xml version="1.0" encoding="UTF-8"?>
<svg id="_レイヤー_2" data-name="レイヤー 2" xmlns="http://www.w3.org/2000/svg" viewBox="0 0 775.89 454.1">
  <defs>
    <style>
      .cls-1 {
        fill: #fe445e;
      }

      .cls-2 {
        fill: #fe6a4c;
      }

      .cls-3 {
        fill: #fe7642;
      }

      .cls-4 {
        fill: #fe5558;
      }

      .cls-5 {
        fill: #fe5f52;
      }
    </style>
  </defs>
  <g id="_レイヤー_1-2" data-name="レイヤー 1">
    <g id="_新規シンボル" data-name="新規シンボル">
      <g>
        <path class="cls-3" d="M603.76,429.42c.02-.8-.79-.85-1.63-.45-21.36,10.08-49.52,3.28-56.58-19.08-.81-2.58-3.77-3.9-6.19-2.34,5.66-3.64-32.41,20.37-22.3,12.6l-2.97,2.28c-1,.77-2.14-1.08-3.63-2.02-2.54-1.6-2.96,9.81-4.71,2.74,1.23-1.7,1.44-3.31,1.11-5.06-.29-1.55-2.62-1.34-4.34-2.24.36-2.42,2.78-3.97,1.75-5.86-.72-.84-2.41-.85-2.92-1.38-.47-.5-.37-2.53.68-2.53,3.38,0,5.13-1.81,7.85-3.17,2.47-1.24,7.11.31,8.94-2.29,2.31-3.28,4.48-5.4,8.57-6.72.74-.24,17.27-18.25,16.5-22.09,2.84,1.64,11.67-26.31,10.87-28.21,4.41-10.76,6.52-22.35,9.87-34.1,4.6-16.12,7.8-31.87,10.79-48.3.51-2.8,4.42-4.47,6.89-4.97,11.06-2.24,21.29.36,31.48,3.35.26.31.66.8,1,.98,1.32,4.63,1.69,10.36.52,15.72-4.76,21.81-10.6,42.83-16.59,64.28-.28,1.01.4,2.31,1.04,2.04-.11.38-.53.65-.69,1-4.79,10.49-7.92,22.08-10.26,33.94-.78,3.96.37,8.12-.04,12.09-.34,3.22,1.68,5.84,4.03,6.95.32.15.91.62,1.04.95,3.09,7.67,20.25,2.56,17.92-.1.27-.14.7-.06,1-.1,2.29-.31,3.94-1.78,4.98-3.75.84-1.59,2.34-3.25,3.99-4,1.19-.54,1.31-1.14,1.97-2.15,5.49-8.42,10.39-16.79,13.32-26.96l15.37-53.43c4.25-14.76,7.16-29.15,9.54-44.06s23.88-8.81,32.9-5.38c13.66,5.18,3.65,20.93,8.75,19.29,9.46-3.04,27.95-36.16,59.26-23.63,23.38,9.35,9.22,48.22,4.16,49.24-4.49.9-10.8-5.99-19.74-7.04-12.91-1.51-24.71,3.67-33.79,12.89-17.73,18-30.5,49.17-36.74,73.49l-11.53,44.92c-.79,3.06-2.82,5.04-6.02,5.43-7.41.9-31.13,1.46-33.86-4.76-2.48-5.63,3.38-11.41-1.7-13.03-5.82,6.42-12.97,11.06-19.85,15.04Z"/>
        <path class="cls-2" d="M512.76,267.32c.33.06.68.02,1,.1-1,1.79,2.7,1.91,2.78,3.14,1.47,20.87-3.04,23.65-2.78,32.04.01.33-.03.67,0,1-2.28,2.35-6.14,20.72-6,24,.24,5.85-.32,2.47-1.89,10-.82-.21-1.63,0-1.93.68-.26.59-.19,1.25-.39,2.11-3.39,14.18-7.75,27.63-9.74,42.11-.73,5.31.64,11.62,4.74,14,.4.23,1.09.59,1.28,1.02,2.26,5.02,11.18,5.74,14.96,1.89,1.55-1.58,4.14-2.01,6.24-3.41,9.67-6.43,16.29-15.28,22.85-24.2.77,3.84-15.76,21.85-16.5,22.09-4.09,1.32-6.26,3.44-8.57,6.72-1.83,2.6-6.47,1.05-8.94,2.29-2.72,1.37-4.47,3.18-7.85,3.17-1.05,0-1.15,2.04-.68,2.53.51.54,2.2.55,2.92,1.38,1.03,1.89-1.4,3.43-1.75,5.86,1.72.9,4.05.7,4.34,2.24.33,1.75.11,3.36-1.11,5.06,1.76,7.07,2.17-4.34,4.71-2.74,1.49.94,2.63,2.78,3.63,2.02l2.97-2.28c-10.11,7.77,27.96-16.25,22.3-12.6,2.42-1.56,5.38-.23,6.19,2.34,7.06,22.36,35.21,29.16,56.58,19.08.85-.4,1.65-.35,1.63.45-21.37,12.35-50.41,4.92-59.86-18.9-3.14-7.91-11.26,7.05-22.07,12.1-1.22.57-2.85.43-4.44,1.56-7.66,5.48-16.5,7.88-25.9,9.17-10.77,1.48-17.36-3.09-25.74-5.76-18.05-13.93-13.11-30.76-18.04-29.77-2.04.41-3.95,3.21-4.96,4.77-4.43,3.19-8.58,7.43-11.81,11.85-.34.27-.93.64-1.13,1.01.59-1.01-12.37,7.77-11.67,7.41l-11.37,5.72c-2.36,1.18-4.93,1.36-7.09,2-.27-3.33-2.92.05-6.69-3.56-1.28-1.22.19-3.61-.53-5.36-2.24-5.51-5.02-11.16-2.93-17.49,4.61-2.55,15.93,1.69,15.06-2.39,7.96-2.7,16.11-6.41,21.12-13.22,1.91-2.6,4.3-5.21,7.02-6.99,1.48-.97,1.81-1.67,2.84-3.07l13.98-18.98c3.6-2.1,4.86-6.48,6.58-10.57l6.55-15.49c3.77-8.91,15.08-40.78,5.39-47.26-6.16-4.12-14.57-5.58-21.86-4.12-1.95.39-16.41,3.86-14.46,6.51-3.73,1.47-5.94,5.96-9.91,7.13-1.85.55-3.22,2.24-4.07,3.9-.94,1.83-2.49,3.08-4.16,4.23-2.14,1.47-4.85,3.04-4.98,5.81-.4.27-.68.76-1.05,1.08-4.41,3.75-8,9.26-10.52,14.84l-3.5,7.77c-3.44,7.64-5.37,15.61-7.91,23.2-3.63-.8-2.85,10.84-9.35,11.2-1.58.09-6.79-4.85-8.52-10.34-.83-2.64-3.35-4.37-3.19-7.88.05-1.15-2.6-.96-3.71-1.39-.11-1.44,1.96-4.55.55-6.05-7.85-8.34-2.83-10.28-5.49-17.49-.03-.95.87-2.08.97-2.97,1.28.02,2.6-.32,3.14-1.22.68-1.14.04-3.34.96-4.28,1.86-1.91,2.86-3.06,2.75-5.53l-.13-3c-.01-.27-.05-.75.03-1,.41-.29.78-.62,1.11-1,.31-.23.5-.89.88-1,2.55-.63,3.99-3.49,4.12-6,.31-.21.65-.74.89-1,.79.18,1.87-.2,2.27-1.14.25-.57,1.46-1.74-.16-1.86.68-.91,1.18-1.58,2.14-2.24,2.4-1.65,5.09-3.7,5.83-6.56,1.83-2.45,3.48-4.41,6.03-6.2,2.52-.65,5.51-2.44,6-5.13,3.65-3.29,7.33-6.77,12-8.69.29.3,1.65,1.03,2.35.38,5.09-4.69,11.48-6.2,17.71-8.5,19.36-7.12,41.99-6.84,61.4-.58,5.74,1.85,11.32,3.3,16.56,6.54,3.22,1.99,6.62,3.1,9.99,3.7Z"/>
        <path class="cls-2" d="M357.18,221.59l-3.41,18c-1.51-.39-2.09.97-2.47,2.62-4.63,19.9-14.47,37.07-23.74,54.52-.94-.78-14.01,12.31-12.56,11.12l-7.8,6.43c-1.82,1.5-4.72-1.71-6.09-2.81-1.65-1.32,0-4.69-.34-6.74-2.27-13.71,4.08-14.42,6.52-23.32.83-3.02.44-5.98,3.13-8.24,1.77-1.48,2.65-3.69,3.34-5.58.32.04.68-.06,1,0,.8.16,1.59.06,1.91-.61.39-.81-.16-1.78.09-2.39,4.55-11.25,9.96-22.2,13-34,2.27-8.81,5.09-18.4,1.8-26.95-.71-1.84-1.93-3.76-3.55-5.71-15.4,3.78-27.08,23.99-35.04,36.89-.46.74-6.51,9.35-5.89,7.21-.11.4,1.6,1.17,1.25,1.74l-3.57,5.82c-.67.48-1.88,1.04-2.03,2.01-2.98-.26-6.77,3.17-9.83,2.38-4-1.07-7.23-3.58-11.88-3.61-1.15,0-2.2-2.54-3.72-1.69-.73.41-1.63.99-2.44,1.93-1.89,2.2-4.38.21-6.24-1.12-.96.45-1.58,2.59-2.01,3.22-.35.51-2.47.51-2.55-.42-.45-4.84,3.57-8.32,7.8-9.57-.85-3.99-.49-9.96-3.09-9.13l-.03-1.17c11.4-21.98,27.76-43.58,49.03-56.83-.17.91.74,1.2,1.62.73,15.15-8.09,30.19-11.06,45.46-1.84,6.56,3.96,11.1,15.1,11.68,22.17.21,2.62.66,26.8-.71,24.41.32.56.76.78,1.36.53Z"/>
        <path class="cls-4" d="M256.65,355.57c.09,2.07-4.66,1.89-2.89,4.03v1c-3.53-3.73-1.71,18.82-1.59,19.49,1.33,7.52,3.74,14.47,9.59,17.69,6.24,3.44,12.45,5.74,20.15,4.57l5.73-.87c7.68-1.17,15.6-4.25,21.07-9.93,1.23-1.27,2.07-2.52,3.95-2.98-.08,4.56-3.25,7.98-7.3,10.97.98,1.63,2.43,1.94,3.58,3.17-.8,2.58-1.2,5.21-1.05,7.61,5.03,2.05,7.19-1.82,10.52-4.05,2.86-1.92,6.7-2.5,9.42-4.6-2.75,4.44-7.17,7.52-11.07,10.94-.71-.05-1.53-.16-2.38.11-.79.25-.76,1.24-.55,2-.29.41-1.03.5-1.28.92-6.72,3.49-12.81,8.34-20.24,11.55-2.5,1.08-5.94.68-6.56,3.61-.3.03-.71.18-1,.1-5.59-1.5-24.24,8.54-50.67-2.56-5.23-2.2-9.88-5.24-13.48-9.56-.97-1.16-1.52-2.41-2.97-2.15-.22-.37-.61-.66-.88-1-.13-3.82-3.07-6.81-4.29-10.49-9.4-28.22-2.63-54.94,3.71-81.83,3.26,3.32,14.59,12.66,19.69,14.33,10.34,3.38,8.59,10.35,16.26,14.74,1.81,1.03,4.49.85,4.52,3.22Z"/>
        <path class="cls-5" d="M282.74,251.6c-.54,3.53-2.55,6.36-4.04,9.73l-3.71,8.35c-1.42,3.19-1.41,6.54-4.09,9.29-.63.69.22,2.08,1.11,1.62-1.66,3.88-2.85,8.02-3.96,12-3.46,5.19-5.53,11.78-6.27,18-.04.32-.02.67,0,1-.91-.36-7.06,14.2-1.91,11.93l.99.92c1.46,4.21,11-6.38,6.92-2.86,18.22-15.72,33.3-34.56,46-55-.07.31.11.7,0,1-.69,1.89-1.57,4.1-3.34,5.58-2.69,2.25-2.3,5.21-3.13,8.24-2.44,8.9-8.79,9.61-6.52,23.32.34,2.05-1.32,5.42.34,6.74,1.37,1.1,4.27,4.31,6.09,2.81l7.8-6.43c-1.45,1.19,11.62-11.9,12.56-11.12-4.17,7.86-10.16,15.2-16.69,21.13-.82.75-2.77.77-2.09,2.73-1.03,1.64-2.16,3.19-3.97,4.04-.4.26-.74.61-.99,1.01-1.59,2.21-3.53,4.69-6.04,5.95-1.97.98-5.17,1.27-4.92,4.14-.37.12-.71.65-1.02.89-.44.28-.77.69-.97,1.17-5.11,4.73-11.19,8.06-17.08,11.6-.61-1.06-2.43.01-3.58.6l-7.34,3.74c-2.16,1.1-3.91,2.51-6.19,1.84-.03-2.37-2.72-2.19-4.52-3.22-7.67-4.4-5.92-11.36-16.26-14.74-5.1-1.67-16.43-11.01-19.69-14.33l5.58-23.68c5.47-23.2,16.51-44.48,27-66,2.6-.83,2.24,5.14,3.09,9.13-4.23,1.25-8.25,4.73-7.8,9.57.09.92,2.2.93,2.55.42.43-.63,1.05-2.77,2.01-3.22,1.86,1.33,4.35,3.32,6.24,1.12.81-.94,1.71-1.52,2.44-1.93,1.52-.85,2.57,1.68,3.72,1.69,4.65.03,7.89,2.54,11.88,3.61,3.06.79,6.86-2.64,9.83-2.38Z"/>
        <path class="cls-5" d="M385.67,356.55c-1.34,4.01-.57,8.95-.9,13.05-.06.78.12,1.81,1,2v4c-1.47,2.03-2.17,6.81.18,8.04,1.5.79.93,3.75,1.82,4.96-4.2,3.06,9.22,14.87,16.83,13.19.87,4.08-10.46-.16-15.06,2.39-2.09,6.33.69,11.98,2.93,17.49.72,1.76-.75,4.14.53,5.36,3.78,3.61,6.42.22,6.69,3.56-3.03.89-6.81,2.72-9.93,3.01-10.71,1-21.45-1.39-30.96-7.03-1.16-.69-1.98-1.23-3.04-.97-.65-.68-1.72-.94-2.04-1.98-.26-.4-.61-.73-1.02-.98-.29-.3-.62-.82-.98-.98-1.11-1.98-1.34-5.22-4.06-5.06-5.17-6.23-7.21-14.47-9.12-22.93-2.25-.64-3.78,1.13-5.48,1.99-.79.4-1.56.86-1.3,1.93-.79,1.93-2.4,2.88-3.93,4.06-2.72,2.1-6.56,2.68-9.42,4.6-3.33,2.24-5.49,6.1-10.52,4.05-.15-2.41.25-5.04,1.05-7.61-1.15-1.22-2.6-1.54-3.58-3.17,4.04-2.99,7.21-6.4,7.3-10.97.51-1.14,2.26-2.12,3.1-2.97.35,2.06,12.82-10.74,11.02-11.03.91-.91,1.38-2.81,2.94-3.01,2.37-.31,2.1-2.6,3.04-3.96,2.27-3.3,4.2-6.99,6.84-10s4.58-6.76,6.21-10.99l5.31-13.8c1.15-3,2.93-6.09,4.83-8.21,2.66,7.21-2.36,9.16,5.49,17.49,1.41,1.5-.66,4.61-.55,6.05,1.11.42,3.76.24,3.71,1.39-.16,3.51,2.36,5.24,3.19,7.88,1.73,5.49,6.94,10.43,8.52,10.34,6.5-.36,5.73-12,9.35-11.2Z"/>
        <path class="cls-3" d="M598.81,232.65c-10.86-6.24-15.67-18.87-9.46-30.39.93-1.73.93-4.08,2.65-5.44,2.35-1.87,4.37-3.7,5.91-5.87,11.92-8.74,29.24-4.62,35.16,9.06,4.26,9.83.38,20.79-6.61,27.72-7.4,7.32-18.46,9.09-27.65,4.93Z"/>
        <path class="cls-1" d="M216.18,323.28c-6.34,26.89-13.11,53.61-3.71,81.83,1.22,3.68,4.17,6.67,4.29,10.49-5.43-6.82-8.62-15.92-9.54-25.32-3.18-32.44,4.81-60.55,13.54-90.68h1l-5.58,23.68Z"/>
        <path class="cls-2" d="M613.8,259.57c-10.19-2.99-20.42-5.59-31.48-3.35-2.47.5-6.38,2.17-6.89,4.97-2.99,16.43-6.19,32.18-10.79,48.3-3.35,11.74-5.47,23.33-9.87,34.1h-1c6.31-23.49,12.71-46.9,17.77-71.17.84-4.01.55-8.13,2.6-11.72,4.94-8.65,14.48-7.45,22.72-6.37,6.12.8,13.12.64,16.95,5.24Z"/>
        <path class="cls-2" d="M599.76,342.59c-.64.27-1.32-1.03-1.04-2.04,5.99-21.45,11.84-42.47,16.59-64.28,1.17-5.36.8-11.09-.52-15.72,4.2.18,3.1,12.06,2.88,13.05-5.22,23.52-11.21,46.36-17.92,68.99Z"/>
        <path class="cls-5" d="M512.76,267.32c-3.36-.6-6.77-1.72-9.99-3.7-5.24-3.24-10.82-4.69-16.56-6.54-19.41-6.26-42.04-6.54-61.4.58-6.23,2.29-12.62,3.81-17.71,8.5-.7.64-2.06-.08-2.35-.38.39-1.99,3.19-1.42,4.48-2.59,2.47-2.25,4.87-3.09,7.83-4.35,11.46-4.87,23.2-7.61,35.95-7.6h10.1c17.72.03,35.12,6.7,49.63,16.09Z"/>
        <path class="cls-5" d="M505.88,337.59c-1.59,7.65-3.48,15.41-5.91,23.32-3,9.79-7.58,27.35-1.42,35.58-4.1-2.39-5.47-8.69-4.74-14,1.99-14.47,6.35-27.92,9.74-42.11.2-.85.13-1.52.39-2.11.3-.68,1.1-.89,1.93-.68Z"/>
        <path class="cls-1" d="M284.76,430.87c-7.35,3.97-16.18,3.59-25.05,3.81-12.8.32-26.34-2.35-35.71-11.15-2.47-2.31-4.9-4.48-6.36-6.95,1.45-.26,2,.99,2.97,2.15,3.6,4.33,8.26,7.37,13.48,9.56,26.43,11.1,45.07,1.06,50.67,2.56Z"/>
        <path class="cls-4" d="M248.76,233.59c-10.49,21.52-21.53,42.8-27,66h-1c4.37-15.07,9.2-30.11,16.35-44.62,3.84-7.79,6.3-16.16,11.62-22.54l.03,1.17Z"/>
        <path class="cls-5" d="M357.18,221.59c-.6.25-1.04.03-1.36-.53,1.38,2.39.93-21.79.71-24.41-.58-7.07-5.12-18.21-11.68-22.17-15.27-9.23-30.31-6.25-45.46,1.84-.88.47-1.79.18-1.62-.73,10.99-6.85,24.72-11.02,37.94-6.84,16.39,5.18,23.93,21.5,23.29,37.74-.23,5.9-.86,10.08-1.81,15.1Z"/>
        <path class="cls-4" d="M353.76,239.59c-2.5,13.17-16.27,47.42-26.21,57.14,9.27-17.45,19.11-34.62,23.74-54.52.38-1.64.96-3.01,2.47-2.62Z"/>
        <path class="cls-5" d="M592.8,396.57c-2.34-1.1-4.36-3.73-4.03-6.95.41-3.96-.74-8.12.04-12.09,2.33-11.86,5.47-23.44,10.26-33.94-2.09,16.34-14.74,37.41-6.27,52.97Z"/>
        <path class="cls-5" d="M521.84,422.62c-15.75,12.31-38.54,18.51-56.07,4.98,8.38,2.66,14.97,7.23,25.74,5.76,9.4-1.29,18.23-3.7,25.9-9.17,1.59-1.13,3.22-.99,4.44-1.56Z"/>
        <path class="cls-5" d="M513.76,302.59c-.26-8.39,4.26-11.17,2.78-32.04-.09-1.23-3.78-1.35-2.78-3.14,1.79.46,4.48,1.87,4.78,4.27.87,6.88-.92,26.72-4.78,30.91Z"/>
        <path class="cls-4" d="M429.82,415.46c-.99,1.86-3.26,2.52-4.98,4.07-8.54,7.68-25.51,15.12-35.07,15.07v-1c3.12-.29,6.9-2.12,9.93-3.01,2.16-.63,4.73-.81,7.09-2l11.37-5.72c-.7.35,12.26-8.43,11.67-7.41Z"/>
        <path class="cls-2" d="M597.92,190.95c-1.54,2.17-3.56,4-5.91,5.87-1.72,1.37-1.72,3.71-2.65,5.44-6.21,11.52-1.4,24.14,9.46,30.39-8.07-3.66-14.14-10.9-13.99-20.17.14-8.79,5.8-17.67,13.09-21.53Z"/>
        <path class="cls-5" d="M543.89,371.8c-.43-2.15,1.48-3.7,2.3-5.85,2.86-7.53,5.57-14.92,7.57-22.35h1c.8,1.9-8.03,29.84-10.87,28.21Z"/>
        <path class="cls-1" d="M253.76,360.59c0,1.62.05,3.46-.59,5.34-1.87,5.52,2.34,27.52,8.59,31.84-5.85-3.22-8.26-10.17-9.59-17.69-.12-.67-1.94-23.22,1.59-19.49Z"/>
        <path class="cls-1" d="M389.76,433.59v1l-14.02-.07c-7.63-.04-15.03-3.74-19.98-8.93,1.06-.26,1.89.28,3.04.97,9.5,5.64,20.24,8.03,30.96,7.03Z"/>
        <path class="cls-5" d="M507.76,327.59c-.14-3.28,3.72-21.65,6-24,.64,7.41-3.54,14.56-4.44,22.44-.1.85-1.42,1.25-1.56,1.56Z"/>
        <path class="cls-4" d="M363.76,310.59c-1.23.26-6.6,8.99-6.84,11.03-.1.89-1,2.03-.97,2.97-1.9,2.11-3.67,5.21-4.83,8.21l-5.31,13.8c-1.63,4.23-3.49,7.9-6.21,10.99l9.51-23.67c3.82-9.51,8.26-18.76,14.51-26.33l.13,3Z"/>
        <path class="cls-5" d="M514.8,399.41c-3.78,3.85-12.71,3.13-14.96-1.89,4.68,2.46,9.76,2.38,14.96,1.89Z"/>
        <path class="cls-2" d="M611.76,397.42c2.33,2.67-14.83,7.77-17.92.1,5.52,3.31,12.24,2.78,17.92-.1Z"/>
        <path class="cls-1" d="M287.64,401.47c7.19-2.73,14.13-6.29,21.07-9.93-5.47,5.69-13.38,8.76-21.07,9.93Z"/>
        <path class="cls-1" d="M312.56,415.62c-1.53,2.57-21.57,14.64-26.8,15.16.62-2.93,4.06-2.53,6.56-3.61,7.43-3.21,13.52-8.06,20.24-11.55Z"/>
        <path class="cls-4" d="M442.76,402.59c-3,4.63-7.44,8.43-11.81,11.85,3.23-4.42,7.38-8.66,11.81-11.85Z"/>
        <path class="cls-4" d="M315.76,385.59l11.02-11.03c1.8.28-10.67,13.09-11.02,11.03Z"/>
        <path class="cls-1" d="M273.76,349.39c-6.09,3.65-12.33,7.2-19.63,9.24-.06.6-.2.91-.37.97-1.77-2.14,2.98-1.96,2.89-4.03,2.28.66,4.03-.74,6.19-1.84l7.34-3.74c1.15-.58,2.97-1.65,3.58-.6Z"/>
        <path class="cls-4" d="M374.91,292.36c1.19-2.81,4.14-4.31,5.83-6.56-.74,2.86-3.43,4.92-5.83,6.56Z"/>
        <path class="cls-1" d="M316.76,412.59c-.88.77-1.24,2.44-2.92,2.1-.21-.75-.24-1.75.55-2,.84-.26,1.66-.16,2.38-.11Z"/>
        <path class="cls-4" d="M365.64,304.59c.6-2.39,2.08-4.61,4.12-6-.13,2.51-1.57,5.37-4.12,6Z"/>
        <path class="cls-4" d="M370.65,297.59c.11-1.38,1.39-2.04,2.11-3,1.63.13.41,1.3.16,1.86-.41.93-1.49,1.32-2.27,1.14Z"/>
        <path class="cls-1" d="M297.76,331.59c-1.79,1.24-2.75,3.45-4.92,4.14-.25-2.87,2.96-3.15,4.92-4.14Z"/>
        <path class="cls-1" d="M351.72,421.66c-2.17-.99-2.73-3.46-4.06-5.06,2.73-.16,2.96,3.08,4.06,5.06Z"/>
        <path class="cls-4" d="M392.76,274.46c-.49,2.69-3.48,4.48-6,5.13,2.07-1.46,4.19-3.5,6-5.13Z"/>
        <path class="cls-1" d="M308.76,320.59c-.67-1.96,1.27-1.98,2.09-2.73-.22,1.22-1.51,1.79-2.09,2.73Z"/>
        <path class="cls-4" d="M329.72,371.56c.88-1.42,1.78-2.85,3.04-3.96-.94,1.37-.68,3.65-3.04,3.96Z"/>
        <path class="cls-2" d="M612.76,397.32c1.21-1.74,3.32-2.49,4.98-3.75-1.04,1.96-2.69,3.44-4.98,3.75Z"/>
        <path class="cls-4" d="M331.76,397.59c-.25-1.07.51-1.53,1.3-1.93.21.97-1.04,1.29-1.3,1.93Z"/>
        <path class="cls-2" d="M621.74,389.57c.33-.97,1.04-1.74,1.97-2.15-.66,1.01-.78,1.61-1.97,2.15Z"/>
        <path class="cls-1" d="M290.84,337.79c.2-.48.53-.89.97-1.17-.4.3-.61.83-.97,1.17Z"/>
        <path class="cls-1" d="M303.81,325.65c.25-.41.59-.75.99-1.01-.33.15-.77.71-.99,1.01Z"/>
        <path class="cls-4" d="M363.66,306.59c.21-.46.73-.71,1.11-1-.33.38-.7.71-1.11,1Z"/>
        <path class="cls-1" d="M353.73,423.62c-.11-.36-.75-.7-1.02-.98.41.25.76.58,1.02.98Z"/>
        <path class="cls-5" d="M449.56,359.52c3.35-4.55,27.89-61.75,19.15-70.98-5.91-6.24-23.12-5.39-24.78-4.74l-12.17,4.79c-1.95-2.65,12.51-6.12,14.46-6.51,7.29-1.46,15.7,0,21.86,4.12,9.69,6.49-1.62,38.35-5.39,47.26l-6.55,15.49c-1.73,4.08-2.99,8.46-6.58,10.57Z"/>
        <path class="cls-4" d="M407.6,310.73c-10.55,14.67-17.19,31.88-20.65,50.02-.61,3.22-1.72,5.94-1.19,8.84h-1c.33-4.09-.44-9.04.9-13.05,2.54-7.58,4.47-15.56,7.91-23.2l3.5-7.77c2.52-5.59,6.11-11.1,10.52-14.84Z"/>
        <path class="cls-4" d="M425.72,388.56c-5,6.81-13.16,10.53-21.12,13.22-7.62,1.68-21.03-10.13-16.83-13.19,4.02,5.43-1.11,5.86,12.33,11.62,10.25-.19,18.19-5.6,25.62-11.65Z"/>
        <path class="cls-5" d="M356.92,321.62c.24-2.04,5.61-10.76,6.84-11.03.11,2.46-.89,3.62-2.75,5.53-.92.94-.27,3.14-.96,4.28-.53.9-1.86,1.24-3.14,1.22Z"/>
        <path class="cls-4" d="M413.63,303.85c-1.81,1.82-2.79,4.35-4.98,5.81.13-2.77,2.83-4.34,4.98-5.81Z"/>
        <path class="cls-4" d="M432.74,381.57c.62-1.28,1.58-2.38,2.84-3.07-1.03,1.4-1.36,2.1-2.84,3.07Z"/>
        <path class="cls-4" d="M417.79,299.62c.86-1.66,2.22-3.35,4.07-3.9-1.02,1.61-2.41,2.97-4.07,3.9Z"/>
        <path class="cls-5" d="M329.76,230.59h-1c-.77,1.65,4.89-25.4,2.8-26.95,3.3,8.55.47,18.14-1.8,26.95Z"/>
        <path class="cls-4" d="M329.76,230.59c-3.04,11.8-8.45,22.75-13,34-.76-.19-1.65-.03-1.87.65-.28.86-.19,1.65-.13,2.35-.32-.06-.68.04-1,0,.11-.3-.07-.69,0-1,6.85-11.02,9.54-24.35,15-36h1Z"/>
        <path class="cls-4" d="M271.99,280.59c-.88.46-1.74-.93-1.11-1.62,2.68-2.75,2.68-6.1,4.09-9.29l3.71-8.35c1.5-3.37,3.51-6.2,4.04-9.73.15-.97,1.36-1.53,2.03-2.01.32,2.36-1.32,4.29-2.34,6.65l-10.44,24.35Z"/>
        <path class="cls-5" d="M316.76,264.59c-.25.61.31,1.58-.09,2.39-.32.67-1.12.77-1.91.61-.06-.71-.15-1.49.13-2.35.22-.68,1.11-.83,1.87-.65Z"/>
        <path class="cls-1" d="M261.76,310.59c.74-6.22,2.8-12.81,6.27-18l-4.42,15.93c-.32,1.16-.87,1.92-1.84,2.07Z"/>
        <path class="cls-1" d="M259.85,323.53c-5.15,2.27,1-12.3,1.91-11.93.29,5.54-2.59,5.88-1.91,11.93Z"/>
        <path class="cls-1" d="M267.76,321.59c4.08-3.52-5.46,7.07-6.92,2.86,2.76.17,4.28-2.63,6.92-2.86Z"/>
        <path class="cls-1" d="M385.94,383.63c-2.35-1.23-1.65-6.01-.18-8.04,0,2.68.04,5.36.18,8.04Z"/>
        <path class="cls-1" d="M385.76,371.59c-.88-.19-1.06-1.22-1-2h1c.12.64,0,1.35,0,2Z"/>
      </g>
      <g>
        <path class="cls-1" d="M95.84,213.67c-7.57,12.29-15.11,24.71-17.53,40.31,5.24-1.76,6.06-6.86,9.49-9.42-2.21,4.84-5.91,9-10.93,12.28-.01,6.1-1.37,11.84-2.12,17.71-.48,3.77,3.91,5.08,5.69,7.17,2.79,3.27,5.26,5.35,9.04,7.27,2.2,1.12,3.8,3.41,6.66.58,2.4,5.84,6.84,4.08,9.37,6.69,2.27,2.34-4.92,3.2-3.65,6.53.54,1.4,1.26,4.44,3.43,3.37,1.47-.72,2.52-1.91,3.58-.83-18.52,15.45-22.15,35.2-22.49,59.18l-.12,8.25c-.19,13.34-7.59,37.51-16.51,47.82.4-2.44,1.65-4.84,2.91-7.06,5.42-9.56,8.73-20.09,10.76-31.33,2.82-15.64.18-15.33,2.05-30.94-1.48-1.76-5.55.43-6.36,2.57-1.04,2.76-3.55,3.88-4.87,6.14l-7.84,13.42c-1.48,2.54-4.5,6.76-7.43,7.32l-14.26,2.71c-3.43.65-4.82.13-7.11-.05-5.89-.48-6.95,5.69-7,10.11-.09,6.89-2.36,12.96-3.5,19.04-.24,1.26-.91,2.35-2.37,2.06,5.67-21.58,6.71-32.86,2.82-55.77-3.24-19.1-8.85-36.88-15.62-55.1-10.76-28.92-14.71-58.36-9.88-89.16,3.29-20.98,10.26-41.13,20.73-58.97,4.12.54-5.08,5.77-2.46,10.02,3.51,1.48,6.97,1.82,9.38,5.23.86,1.21,3.63.6,4.81,1.84l12.24,12.87c2.59,2.72,6.83,3.09,9.83,5.35,5.79,4.35,9.16,11.1,13.71,12.17,4.98,1.18,5.9,5.49,7.81,9.04,2.25,4.18,5.08,7.16,3.61,12.69-.52,1.95.13,4.59,2.46,6.37,1.03-3.36,2.79-5.18,4.39-7.78l4.59-7.46c.76-1.24,1.15-2.75,2.71-2.26Z"/>
        <circle class="cls-1" cx="100.76" cy="309.59" r="1.11"/>
        <path class="cls-5" d="M191.76,56.35c-.67,1.38-2.07,1.85-3.91,2.41-21.19,6.51-42.46,11.69-62.77,20.08-2.74,1.13-4.32,6.57-9,5.97,2.63,4.08,5.18,2.28,7.56,4.02.59,6.84,4.34,13,10.97,14.68,1.46,3.73,5.77,4.06,7.81,6.57l7.88,9.65c-1.42-1.74,19.8,13.91,17.19,19.04l5.28,1.79c-1.24,4.64,2.57,5.61,4.75,8.36,3.34,4.21,8.54,9.03,14.93,7.21,5.58-1.59,21.11-10.06,25.83-14.08.75-.64,1.92-.34,2.49-.45-11.05,10.11-25.92,15.66-40,21,3.7-2.9-24.7,5.68-21,7.17-.3.08-.69.13-1,.09l-2-.25c-8.56,3.21-16.79,6.91-24,12-3.46,1.44-7.14,4.2-11.07,4.94s-4.37-5.41-5.41-7.49c-1.82-3.45-7.44-4.12-9.61-7.06-1.51-2.05-2.26-3.52-4.49-4.93-3.81-2.41-6.08-7.5-10.18-9.6-3-1.54-4.86-3.03-6.05-6.13-6.51-5.53-5.64-2.79-10.65-8.27s-11.36-9.14-16.64-14.37l-5.02-4.97c.15-1.56.69-3.97,1.14-5.09,1.83-4.51,6.98-4.09,8.8-8.83l1.51-1c2.24-1.48,5.2-2.44,6.32-4.98,1.44-1.17,2.82-2.18,4.35-3.2-.14.45.21,1.04.54,1.01.59-.06,1.01-.53,1.54-.91,8.88-6.32,26.79-15,37.3-18.68,1.78-.62,3.32-.91,3.62-2.64,13.94-6.3,28.76-10.38,43.85-14.95,9.97-3.02,19.41-6.26,29.15-8.08Z"/>
        <path class="cls-2" d="M198.76,55.59c-.08,1.45-1.05,2.62-2.67,3.27l-8.38,3.36c7.78,12.87,17.81,8.06,17.41,16.9,4.84-3.37,25.43,26.02,24.44,23.63l3.84,9.25c.59,1.43.31,3.71,2.4,4.09,1.26.23,7.81-.32,8.65-1.27,1.28-1.43.22-3.39,3.04-4.74.47-.23.88-.21,1.13.6-.31,1.66-.81,3.51-1.69,4.99-3.82,6.45-9.38,11.97-15.11,16.78.62-3.03-5.35,3.79-5.87,4.97-.21.49-.88.74-1.19,1.16-1.38-.1-2.62.67-2.96,2.04l-1.04.96c-.57.11-1.74-.19-2.49.45-4.72,4.02-20.25,12.49-25.83,14.08-6.39,1.82-11.6-3-14.93-7.21-2.18-2.75-5.99-3.72-4.75-8.36l-5.28-1.79c2.6-5.13-18.61-20.78-17.19-19.04l-7.88-9.65c-2.04-2.5-6.35-2.84-7.81-6.57-6.63-1.67-10.38-7.83-10.97-14.68-2.38-1.74-4.93.06-7.56-4.02,4.68.6,6.26-4.84,9-5.97,20.31-8.39,41.58-13.57,62.77-20.08,1.84-.57,3.25-1.04,3.91-2.41.14-.29.74-.58,1-.76,1.18,1.92,4.13.68,6,0Z"/>
        <path class="cls-4" d="M54.78,118.62c-.46,1.12-.99,3.54-1.14,5.09l5.02,4.97c5.28,5.23,11.69,8.95,16.64,14.37s4.14,2.74,10.65,8.27c1.19,3.1,3.04,4.59,6.05,6.13,4.1,2.1,6.38,7.19,10.18,9.6,2.24,1.42,2.98,2.89,4.49,4.93,2.18,2.95,7.79,3.62,9.61,7.06,1.04,2.08,1.54,8.22,5.41,7.49s7.61-3.49,11.07-4.94l-17,12c.06-.99-.5-1.13-1.21-.37-1.4,1.1-1.94,2.45-2.76,3.41-3.72,4.38-7.81,8.59-12.24,12.25-1.2.99-2.67,1.69-2.89,3.47-.06.44-.59.94-.82,1.33-1.57-.48-1.95,1.02-2.71,2.26l-4.59,7.46c-1.6,2.61-3.36,4.43-4.39,7.78-2.33-1.78-2.97-4.43-2.46-6.37,1.47-5.53-1.36-8.51-3.61-12.69-1.91-3.55-2.83-7.86-7.81-9.04-4.55-1.07-7.92-7.82-13.71-12.17-3-2.26-7.24-2.63-9.83-5.35l-12.24-12.87c-1.18-1.24-3.96-.63-4.81-1.84-2.4-3.4-5.87-3.75-9.38-5.23-2.61-4.25,6.58-9.48,2.46-10.02,4.36-7.44,9.07-14.74,14.94-21.05,2.04-.97,3.87-2.63,4.15-4.95,3.39-4.38,7.38-8.4,11.78-11.8-.34.91.63.77,1.15.82Z"/>
        <path class="cls-3" d="M275.76,43.59c-2.19,10.21-4.76,20.4-8.27,30.7-.77,2.26-2.12,4.17-1.4,6.3.1.29-.13.69-.12,1-5.16,3.08-9.8,24.52-17.34,29.1-.25-.81-.66-.83-1.13-.6-2.81,1.35-1.76,3.3-3.04,4.74-.84.95-7.4,1.5-8.65,1.27-2.09-.39-1.81-2.66-2.4-4.09l-3.84-9.25c1,2.4-19.59-27-24.44-23.63.4-8.84-9.63-4.04-17.41-16.9l8.38-3.36c1.62-.65,2.59-1.82,2.67-3.27,8.6-3.11,38.95-12.87,43-19.13.21-.32.67-.68,1-.87-2.16,5.8,25.05-16.86,22.1-18.04.32-.38.61-.92,1.02-1.19,4.32-2.87,5.06-8.55,8.43-13.48,3.53,7.75,3.02,15.25,3.73,22.59.65,6.69-1.03,12.25-2.29,18.12Z"/>
        <path class="cls-5" d="M192.8,202.52c-1.3,6.05-29.55,11.82-33.15,13.22l-12.95,5.04c-2.99,1.16,1.71,4.23,3.25,5.23,13.95,9.06,8.78,2.81,23.29,8.04,6.65,9.29,9.46-.78,18.69,10.25,3.01,3.6,8.05,1.66,11.69,1.2-3.85,9.23-10.78,17.2-18.85,23.09,2.24-3.66-8.58,4.44-6,4.18-.33.04-.68.03-1,.1-11.07,2.76-23.19,14.31-31.29-.16-.89-1.58-2.29-4.88-3.59-6.09-7.81-7.26-16.82-13.06-26.39-17.88-3.05-1.53-6.86-.36-9.54-3.33s-8.8-.63-11.04-3.5c-.76-.98-1.01-2.68-1.21-4.16.27-.29.91-.81,1.06-1.17,1.27.73,11.92-6.58,13-8.16.75-1.09,1.89-1.32,3-1.84-.3.66,1.16,1.43,1.87,1.06,8.84-4.62,18.18-6.18,27.13-9.06,3.43-1.1,7.21-2.81,11.19-3.4,14.64-2.17,28.01-6.46,40.84-12.68Z"/>
        <path class="cls-4" d="M177.76,272.88c-5.97,4.99-13.69,7.01-21,9.55,2-2.73-25.58,6.67-23.03,8.27-8.54,4.5-17.15,8.76-24.85,14.65-1.06-1.08-2.12.1-3.58.83-2.17,1.07-2.9-1.97-3.43-3.37-1.27-3.33,5.92-4.19,3.65-6.53-2.53-2.61-6.96-.84-9.37-6.69-2.86,2.82-4.46.53-6.66-.58-3.78-1.92-6.26-4-9.04-7.27-1.78-2.09-6.17-3.4-5.69-7.17.75-5.87,2.11-11.61,2.12-17.71,5.03-3.28,8.73-7.44,10.93-12.28,1.3-2.84,4.47-5.16,6.9-6.8.2,1.48.45,3.18,1.21,4.16,2.24,2.87,8.41.58,11.04,3.5s6.49,1.79,9.54,3.33c9.57,4.82,18.58,10.62,26.39,17.88,1.3,1.2,2.7,4.51,3.59,6.09,8.1,14.46,20.22,2.91,31.29.16Z"/>
        <path class="cls-2" d="M214.77,204.59c.27,6.69-.74,13.4-2.01,20-2.39-2.49-6.6,15.02-6.71,16-.03.31.03.72-.11,1-1.48.21-2.26,1.54-2.06,2.97.02.27-.17.67-.28.93-3.63.46-8.67,2.41-11.69-1.2-9.23-11.04-12.04-.97-18.69-10.25-14.51-5.23-9.34,1.02-23.29-8.04-1.54-1-6.23-4.07-3.25-5.23l12.95-5.04c3.61-1.4,31.85-7.17,33.15-13.22,2.33-1.76,5.01-4.85,7.92-5.73,4.27-1.28,6.66-5.06,10.03-9.64,4.54,4.86-.6,19.42,4.03,17.44Z"/>
        <path class="cls-5" d="M72.67,413.53c-1.26,2.22-2.51,4.62-2.91,7.06-.31.36-.62.71-.96,1.04-1.37.34-2.15,1.57-2.04,2.96-.4.95-1.54,1.32-1.95,2.04-3.42,2.44-6.58,5.58-9,9.01-2.08,2.55-4.55,3.71-7.04,5.76-.41-.53-1.28-1.08-2-.97-2.91.45-5.45-.02-8.4-1.26-4.71-1.98-9.94-2.25-14.47-4.79-1.27-.72-2.38-1.43-3.59-1.19-2.59.52-1.14,1.85-6.7,7.41,4.15-8.49,8.7-16.87,11.1-26,1.46.29,2.13-.8,2.37-2.06,3.39.32,6.21,2.59,9.66,3.93,2.22.86,4.76-.35,7.11.13,7.3,1.49,14.95,1.78,21.91-.98,2.43-.96,4.44-2.38,6.9-2.09Z"/>
        <path class="cls-3" d="M46.76,440.43c-.38,2.59-3.07,2.9-5.26,3.87l-16.77,7.42c-6.64,1.03-13.21,3.95-21.56,1.3,4.21-3.82,6.79-8.77,10.44-12.42,5.55-5.56,4.11-6.89,6.7-7.41,1.21-.24,2.32.48,3.59,1.19,4.53,2.55,9.76,2.81,14.47,4.79,2.95,1.24,5.48,1.72,8.4,1.26Z"/>
        <path class="cls-2" d="M276.76,44.59c-.3-.37-.63-.7-1-1,1.26-5.87,2.94-11.44,2.29-18.12-.71-7.34-.21-14.84-3.73-22.59-3.37,4.93-4.11,10.61-8.43,13.48,3.13-5.06,5.73-10.37,7.98-16.36,6.5,11.4,6.84,23.97,4.76,36.69-.48,2.91.24,6.02-1.86,7.9Z"/>
        <path class="cls-5" d="M241.76,36.47c-4.05,6.26-34.4,16.01-43,19.13-1.87.68-4.82,1.92-6,0,16.73-5.25,33.2-11.49,49-19.13Z"/>
        <path class="cls-5" d="M276.76,44.59c.12,6-6.82,31.69-10.67,36-.72-2.13.64-4.05,1.4-6.3,3.5-10.3,6.08-20.49,8.27-30.7.37.3.7.63,1,1Z"/>
        <path class="cls-1" d="M140.76,218.59c-8.95,2.88-18.29,4.44-27.13,9.06-.7.37-2.17-.4-1.87-1.06,6.93-3.26,21.49-9.19,29-8Z"/>
        <path class="cls-1" d="M156.76,282.43c-7.7,2.68-15.05,6.6-23.03,8.27-2.55-1.59,25.03-11,23.03-8.27Z"/>
        <path class="cls-5" d="M214.77,204.59c-4.62,1.98.52-12.58-4.03-17.44-3.37,4.58-5.77,8.36-10.03,9.64,3.86-3.4,7.06-7.11,10.69-12.32,2,6.54,3.1,13.36,3.37,20.12Z"/>
        <path class="cls-1" d="M156.76,170.59c-7.89,3.81-15.89,7.62-24,11,7.21-5.09,15.44-8.79,24-12v1Z"/>
        <path class="cls-2" d="M48.76,441.4c-6.95,5.71-15.35,8.97-24.03,10.31l16.77-7.42c2.2-.97,4.88-1.28,5.26-3.87.72-.11,1.59.44,2,.97Z"/>
        <path class="cls-5" d="M246.94,115.68c.88-1.49,1.38-3.34,1.69-4.99,7.54-4.58,12.18-26.02,17.34-29.1.08,3.46-14.43,31.18-19.03,34.09Z"/>
        <path class="cls-4" d="M180.76,162.59c-6.89,2.61-13.88,5.24-21,7.17-3.7-1.48,24.7-10.07,21-7.17Z"/>
        <path class="cls-1" d="M118.76,79.38c-.3,1.73-1.84,2.01-3.62,2.64-10.51,3.68-28.41,12.36-37.3,18.68-.53.38-.95.85-1.54.91-.33.03-.68-.55-.54-1.01,13.25-8.88,27.6-17.05,43-21.22Z"/>
        <path class="cls-5" d="M212.76,224.59c-1.09,5.65-3.57,11.31-6.71,16,.11-.98,4.33-18.49,6.71-16Z"/>
        <path class="cls-2" d="M242.76,35.59c8.23-4.98,15.92-10.63,22.1-18.04,2.94,1.18-24.27,23.84-22.1,18.04Z"/>
        <path class="cls-1" d="M63.58,109.78c-1.82,4.75-6.97,4.33-8.8,8.83-.52-.05-1.49.09-1.15-.82,3.38-2.6,6.38-5.66,9.95-8.02Z"/>
        <path class="cls-1" d="M108.76,228.43c-1.08,1.58-11.73,8.89-13,8.16.42-1,11.3-9.16,13-8.16Z"/>
        <path class="cls-1" d="M71.42,103.8c-1.12,2.55-4.08,3.5-6.32,4.98,1.78-2.08,4.24-3.29,6.32-4.98Z"/>
        <path class="cls-1" d="M99.56,208.88l-2.89,3.47c.22-1.78,1.69-2.47,2.89-3.47Z"/>
        <path class="cls-5" d="M231.83,132.47c-1.94,1.63-3.51,3.8-5.87,4.97.52-1.18,6.49-8,5.87-4.97Z"/>
        <path class="cls-4" d="M184.76,268.59c-1.97,1.44-3.37,3.86-6,4.18-2.58.26,8.24-7.84,6-4.18Z"/>
        <path class="cls-4" d="M158.76,169.85c-.38.79-1.4.45-2,.75v-1l2,.25Z"/>
        <path class="cls-1" d="M66.76,424.59c-.11-1.39.67-2.62,2.04-2.96-.02,1.36-1.61,1.92-2.04,2.96Z"/>
        <path class="cls-5" d="M224.76,138.59c-.74.98-1.79,1.66-2.96,2.04.33-1.37,1.57-2.15,2.96-2.04Z"/>
        <path class="cls-5" d="M203.89,244.57c-.2-1.43.57-2.76,2.06-2.97-.53,1.09-1.07,2.23-2.06,2.97Z"/>
        <path class="cls-1" d="M37.71,134.55c1.41-1.52,2.88-3.31,4.15-4.95-.27,2.32-2.11,3.98-4.15,4.95Z"/>
        <path class="cls-1" d="M115.76,193.59c-1.33.94-2.67,2.02-3.97,3.03.82-.96,1.36-2.31,2.76-3.41.71-.75,1.26-.61,1.21.37Z"/>
        <path class="cls-1" d="M55.81,435.65c2.42-3.43,5.58-6.58,9-9.01-2.13,3.74-6.39,5.8-9,9.01Z"/>
        <path class="cls-4" d="M72.67,413.53c-2.46-.29-4.48,1.13-6.9,2.09-6.97,2.75-14.61,2.47-21.91.98-2.35-.48-4.89.73-7.11-.13-3.45-1.33-6.27-3.61-9.66-3.93,1.14-6.08,3.41-12.15,3.5-19.04.06-4.43,1.11-10.59,7-10.11,2.29.19,3.68.7,7.11.05l14.26-2.71c2.93-.56,5.95-4.79,7.43-7.32l7.84-13.42c1.32-2.27,3.83-3.39,4.87-6.14.81-2.14,4.88-4.33,6.36-2.57-1.87,15.61.77,15.3-2.05,30.94-2.02,11.23-5.33,21.76-10.76,31.33Z"/>
        <circle class="cls-4" cx="100.76" cy="309.59" r="1.11"/>
      </g>
    </g>
  </g>
</svg>